 <svg
              xmlns="http://www.w3.org/2000/svg"
              width="28"
              height="28"
              viewBox="0 0 28 28"
              fill="none"
            >
              <path
                d="M13.1056 3.94721L6.45554 7.27224C5.67499 7.66251 5.28472 7.85765 5.28472 8.16667C5.28472 8.47568 5.67499 8.67082 6.45554 9.06109L13.1056 12.3861C13.5445 12.6056 13.764 12.7153 14 12.7153C14.2361 12.7153 14.4555 12.6056 14.8944 12.3861L21.5445 9.06109C22.325 8.67082 22.7153 8.47568 22.7153 8.16667C22.7153 7.85765 22.325 7.66251 21.5445 7.27224L14.8944 3.94721C14.4555 3.72776 14.2361 3.61803 14 3.61803C13.764 3.61803 13.5445 3.72776 13.1056 3.94721Z"
                fill="#C2FF51"
              />
              <path
                fill-rule="evenodd"
                clip-rule="evenodd"
                d="M8.1708 12.2483C8.57391 12.4542 9.01323 12.6739 9.48877 12.9116L12.2112 14.2728C13.089 14.7118 13.5279 14.9312 14 14.9312C14.4722 14.9312 14.9111 14.7118 15.7889 14.2728L18.5113 12.9116C18.9868 12.6739 19.4261 12.4542 19.8292 12.2483L21.5445 13.1059C22.3251 13.4962 22.7153 13.6913 22.7153 14.0003C22.7153 14.3094 22.3251 14.5045 21.5445 14.8948L14.8945 18.2198C14.4555 18.4393 14.2361 18.549 14 18.549C13.764 18.549 13.5445 18.4393 13.1056 18.2198L13.1056 18.2198L6.45555 14.8948C5.675 14.5045 5.28473 14.3094 5.28473 14.0003C5.28473 13.6913 5.675 13.4962 6.45555 13.1059L8.1708 12.2483Z"
                fill="#C2FF51"
              />
              <path
                fill-rule="evenodd"
                clip-rule="evenodd"
                d="M8.17023 18.0815C8.5735 18.2876 9.01303 18.5073 9.4888 18.7452L12.2112 20.1064C13.089 20.5453 13.5279 20.7648 14 20.7648C14.4722 20.7648 14.9111 20.5453 15.7889 20.1064L18.5113 18.7452C18.9871 18.5073 19.4266 18.2876 19.8298 18.0816L21.5445 18.9389C22.3251 19.3292 22.7153 19.5243 22.7153 19.8333C22.7153 20.1423 22.3251 20.3375 21.5445 20.7277L21.5445 20.7277L14.8945 24.0528C14.4555 24.2722 14.2361 24.3819 14 24.3819C13.764 24.3819 13.5445 24.2722 13.1056 24.0528L13.1056 24.0528L6.45555 20.7277C5.675 20.3375 5.28473 20.1423 5.28473 19.8333C5.28473 19.5243 5.675 19.3292 6.45555 18.9389L8.17023 18.0815Z"
                fill="#C2FF51"
              />
            </svg>