
            <svg
              xmlns="http://www.w3.org/2000/svg"
              width="24"
              height="24"
              viewBox="0 0 24 24"
              fill="none"
            >
              <path
                fill-rule="evenodd"
                clip-rule="evenodd"
                d="M10.4884 2.10552C9.70633 2.10552 9.041 2.64897 8.85424 3.38146H15.134C14.9473 2.64897 14.282 2.10552 13.4999 2.10552H10.4884ZM16.9083 3.38146H19.2194C21.6706 3.38146 23.6666 5.4017 23.6666 7.8827C23.6666 7.8827 23.5966 8.93299 23.5733 10.3956C23.5709 10.5114 23.5149 10.6248 23.4227 10.6933C22.8612 11.108 22.3477 11.4506 22.301 11.4742C20.3633 12.7738 18.1117 13.6882 15.713 14.1431C15.5566 14.1738 15.4025 14.0923 15.3231 13.9529C14.6508 12.788 13.3948 12.0295 11.9941 12.0295C10.6028 12.0295 9.33515 12.7797 8.64297 13.9458C8.56243 14.0828 8.41069 14.162 8.25544 14.1325C5.87659 13.6764 3.62496 12.7632 1.699 11.4861L0.578436 10.7063C0.485056 10.6472 0.426693 10.5409 0.426693 10.4228C0.391676 9.82025 0.333313 7.8827 0.333313 7.8827C0.333313 5.4017 2.32931 3.38146 4.78054 3.38146H7.08002C7.3018 1.66839 8.73752 0.333374 10.4884 0.333374H13.4999C15.2508 0.333374 16.6865 1.66839 16.9083 3.38146ZM23.2698 12.9511L23.2231 12.9748C20.8652 14.5579 18.0288 15.6094 15.0523 16.0465C14.6321 16.1056 14.2119 15.8338 14.0952 15.4085C13.8384 14.4397 13.0097 13.8018 12.0175 13.8018H12.0058H11.9825C10.9903 13.8018 10.1616 14.4397 9.90477 15.4085C9.78804 15.8338 9.36783 16.1056 8.94762 16.0465C5.97113 15.6094 3.13471 14.5579 0.776868 12.9748C0.765196 12.963 0.648471 12.8921 0.555091 12.9511C0.450038 13.0102 0.450038 13.152 0.450038 13.152L0.531746 19.1773C0.531746 21.6583 2.51607 23.6667 4.9673 23.6667H19.021C21.4722 23.6667 23.4565 21.6583 23.4565 19.1773L23.5499 13.152C23.5499 13.152 23.5499 13.0102 23.4449 12.9511C23.3865 12.9157 23.3165 12.9275 23.2698 12.9511ZM12.8696 17.9013C12.8696 18.3975 12.4844 18.7874 11.9941 18.7874C11.5156 18.7874 11.1187 18.3975 11.1187 17.9013V16.3773C11.1187 15.8929 11.5156 15.4912 11.9941 15.4912C12.4844 15.4912 12.8696 15.8929 12.8696 16.3773V17.9013Z"
                fill="#BCBCBC"
              />
            </svg>