 <svg
              xmlns="http://www.w3.org/2000/svg"
              width="28"
              height="28"
              viewBox="0 0 28 28"
              fill="none"
            >
              <path
                d="M23.3333 7.87492C25.1052 7.87492 26.5417 6.4385 26.5417 4.66659C26.5417 2.89467 25.1052 1.45825 23.3333 1.45825C21.5614 1.45825 20.125 2.89467 20.125 4.66659C20.125 6.4385 21.5614 7.87492 23.3333 7.87492Z"
                fill="#C2FF51"
              />
              <path
                d="M22.2133 9.50825C20.3816 9.11158 18.8883 7.61825 18.4916 5.78659C18.34 5.07492 18.3283 4.38659 18.4566 3.73325C18.6083 3.00992 18.0716 2.33325 17.325 2.33325H8.16665C4.94665 2.33325 2.33331 4.94659 2.33331 8.16658V16.2749C2.33331 19.4949 4.94665 22.1083 8.16665 22.1083H9.91665C10.2433 22.1083 10.6633 22.3183 10.85 22.5749L12.6 24.8966C13.37 25.9233 14.63 25.9233 15.4 24.8966L17.15 22.5749C17.3716 22.2833 17.71 22.1083 18.0833 22.1083H19.845C23.065 22.1083 25.6666 19.5066 25.6666 16.2866V10.6749C25.6666 9.93992 24.99 9.40325 24.2666 9.54325C23.6133 9.65992 22.925 9.65992 22.2133 9.50825ZM9.33331 13.9999C8.67998 13.9999 8.16665 13.4749 8.16665 12.8333C8.16665 12.1916 8.67998 11.6666 9.33331 11.6666C9.97498 11.6666 10.5 12.1916 10.5 12.8333C10.5 13.4749 9.98665 13.9999 9.33331 13.9999ZM14 13.9999C13.3466 13.9999 12.8333 13.4749 12.8333 12.8333C12.8333 12.1916 13.3466 11.6666 14 11.6666C14.6416 11.6666 15.1666 12.1916 15.1666 12.8333C15.1666 13.4749 14.6533 13.9999 14 13.9999ZM18.6666 13.9999C18.0133 13.9999 17.5 13.4749 17.5 12.8333C17.5 12.1916 18.0133 11.6666 18.6666 11.6666C19.3083 11.6666 19.8333 12.1916 19.8333 12.8333C19.8333 13.4749 19.32 13.9999 18.6666 13.9999Z"
                fill="#BCBCBC"
              />
            </svg>