
            <svg
              xmlns="http://www.w3.org/2000/svg"
              width="24"
              height="24"
              viewBox="0 0 24 24"
              fill="none"
            >
              <path
                fill-rule="evenodd"
                clip-rule="evenodd"
                d="M21.8026 13.8435C22.2199 14.0652 22.5418 14.4152 22.7684 14.7652C23.2095 15.4885 23.1738 16.3752 22.7445 17.1568L21.9099 18.5568C21.4688 19.3035 20.6461 19.7702 19.7996 19.7702C19.3823 19.7702 18.9173 19.6535 18.5358 19.4202C18.2258 19.2218 17.8681 19.1518 17.4866 19.1518C16.3062 19.1518 15.3166 20.1202 15.2808 21.2752C15.2808 22.6168 14.1839 23.6668 12.8128 23.6668H11.1913C9.80826 23.6668 8.71136 22.6168 8.71136 21.2752C8.68751 20.1202 7.69792 19.1518 6.51756 19.1518C6.1241 19.1518 5.76642 19.2218 5.46835 19.4202C5.08682 19.6535 4.6099 19.7702 4.20453 19.7702C3.34608 19.7702 2.52341 19.3035 2.08226 18.5568L1.25959 17.1568C0.818443 16.3985 0.794597 15.4885 1.23574 14.7652C1.42651 14.4152 1.78419 14.0652 2.18957 13.8435C2.52341 13.6802 2.73802 13.4118 2.94071 13.0968C3.53685 12.0935 3.17916 10.7752 2.16572 10.1802C0.985363 9.51516 0.603832 8.0335 1.28343 6.8785L2.08226 5.50183C2.77379 4.34683 4.25222 3.9385 5.4445 4.61516C6.48179 5.17516 7.82907 4.80183 8.43714 3.81016C8.6279 3.4835 8.73521 3.1335 8.71136 2.7835C8.68751 2.3285 8.81867 1.89683 9.0452 1.54683C9.48634 0.823496 10.2852 0.356829 11.1555 0.333496H12.8367C13.719 0.333496 14.5178 0.823496 14.9589 1.54683C15.1735 1.89683 15.3166 2.3285 15.2808 2.7835C15.257 3.1335 15.3643 3.4835 15.5551 3.81016C16.1631 4.80183 17.5104 5.17516 18.5596 4.61516C19.74 3.9385 21.2303 4.34683 21.9099 5.50183L22.7088 6.8785C23.4003 8.0335 23.0188 9.51516 21.8265 10.1802C20.813 10.7752 20.4554 12.0935 21.0634 13.0968C21.2542 13.4118 21.4688 13.6802 21.8026 13.8435ZM8.6279 12.0118C8.6279 13.8435 10.1421 15.3018 12.014 15.3018C13.8859 15.3018 15.3643 13.8435 15.3643 12.0118C15.3643 10.1802 13.8859 8.71016 12.014 8.71016C10.1421 8.71016 8.6279 10.1802 8.6279 12.0118Z"
                fill="#BCBCBC"
              />
            </svg>
          