 <svg
              xmlns="http://www.w3.org/2000/svg"
              width="28"
              height="28"
              viewBox="0 0 28 28"
              fill="none"
            >
              <path
                d="M9.625 6.70825C9.14667 6.70825 8.75 6.31158 8.75 5.83325V2.33325C8.75 1.85492 9.14667 1.45825 9.625 1.45825C10.1033 1.45825 10.5 1.85492 10.5 2.33325V5.83325C10.5 6.31158 10.1033 6.70825 9.625 6.70825Z"
                fill="#BCBCBC"
              />
              <path
                d="M18.375 6.70825C17.8967 6.70825 17.5 6.31158 17.5 5.83325V2.33325C17.5 1.85492 17.8967 1.45825 18.375 1.45825C18.8533 1.45825 19.25 1.85492 19.25 2.33325V5.83325C19.25 6.31158 18.8533 6.70825 18.375 6.70825Z"
                fill="#BCBCBC"
              />
              <path
                d="M14 16.4383C14.6067 16.4383 15.05 16.0766 15.05 15.5049C15.05 14.9216 14.6067 14.5833 14 14.5833C13.3933 14.5833 12.95 14.9216 12.95 15.5049C12.95 16.0766 13.3933 16.4383 14 16.4383Z"
                fill="#BCBCBC"
              />
              <path
                d="M14 19.8333C14.7345 19.8333 15.33 19.3476 15.33 18.7483C15.33 18.1491 14.7345 17.6633 14 17.6633C13.2654 17.6633 12.67 18.1491 12.67 18.7483C12.67 19.3476 13.2654 19.8333 14 19.8333Z"
                fill="#BCBCBC"
              />
              <path
                d="M22.8317 5.24992C22.0617 4.67825 20.9534 5.22659 20.9534 6.19492V6.31159C20.9534 7.67659 19.9734 8.93659 18.6084 9.07659C17.0334 9.23992 15.7034 8.00325 15.7034 6.46325V5.24992C15.7034 4.60825 15.1784 4.08325 14.5367 4.08325H13.4634C12.8217 4.08325 12.2967 4.60825 12.2967 5.24992V6.46325C12.2967 7.38492 11.8184 8.20159 11.095 8.65659C10.99 8.72659 10.8734 8.78492 10.7567 8.84325C10.6517 8.90159 10.535 8.94825 10.4067 8.98325C10.2667 9.02992 10.115 9.06492 9.95169 9.07659C9.76502 9.09992 9.57835 9.09992 9.39169 9.07659C9.22835 9.06492 9.07669 9.02992 8.93669 8.98325C8.82002 8.94825 8.70335 8.90159 8.58669 8.84325C8.47002 8.78492 8.35335 8.72659 8.24835 8.65659C7.51335 8.14325 7.04669 7.25659 7.04669 6.31159V6.19492C7.04669 5.29659 6.09002 4.75992 5.33169 5.14492C5.32002 5.15659 5.30835 5.15659 5.29669 5.16825C5.25002 5.19159 5.21502 5.21492 5.16835 5.24992C5.13335 5.28492 5.08669 5.30825 5.05169 5.34325C4.72502 5.59992 4.43335 5.89159 4.18835 6.20659C4.06002 6.34659 3.95502 6.49825 3.86169 6.64992C3.85002 6.66159 3.83835 6.67325 3.82669 6.69659C3.72169 6.84825 3.62835 7.02325 3.54669 7.18659C3.52335 7.20992 3.51169 7.22159 3.51169 7.24492C3.44169 7.38492 3.37169 7.52492 3.32502 7.67659C3.29002 7.73492 3.27835 7.78159 3.25502 7.83992C3.18502 8.01492 3.13835 8.18992 3.09169 8.36492C3.04502 8.52825 3.01002 8.70325 2.98669 8.87825C2.96335 9.00659 2.95169 9.13492 2.94002 9.27492C2.92835 9.43825 2.91669 9.60159 2.91669 9.76492V19.9849C2.91669 23.1233 5.46002 25.6666 8.59835 25.6666H19.4017C22.54 25.6666 25.0834 23.1233 25.0834 19.9849V9.76492C25.0834 7.90992 24.1967 6.28825 22.8317 5.24992ZM14 21.2916C12.1917 21.2916 11.0834 20.3933 11.0834 18.9466C11.0834 18.1533 11.4917 17.4649 12.2034 17.0566C11.69 16.6949 11.3517 16.1583 11.3517 15.4233C11.3517 13.9066 12.565 13.1249 14 13.1249C15.435 13.1249 16.6367 13.9066 16.6367 15.4233C16.6367 16.1583 16.31 16.6949 15.785 17.0566C16.5084 17.4649 16.9167 18.1533 16.9167 18.9466C16.9167 20.3933 15.7967 21.2916 14 21.2916Z"
                fill="#BCBCBC"
              />
            </svg>